<svg width="53" height="50" viewBox="0 0 53 50" fill="none" xmlns="http://www.w3.org/2000/svg">
<path d="M41.5936 49.5006C41.2252 49.502 40.8658 49.3872 40.5665 49.1724L26.4998 38.9743L12.4331 49.1724C12.1326 49.3904 11.7705 49.5072 11.3992 49.5058C11.028 49.5045 10.6668 49.3851 10.3679 49.1649C10.0689 48.9448 9.84775 48.6353 9.73631 48.2811C9.62487 47.927 9.62893 47.5466 9.74792 47.1949L15.2342 30.9451L1.01542 21.1943C0.707433 20.9833 0.474982 20.6794 0.35203 20.3269C0.229079 19.9744 0.22207 19.5919 0.332029 19.2351C0.441988 18.8784 0.663152 18.5661 0.963206 18.344C1.26326 18.1219 1.62648 18.0015 1.9998 18.0006H19.5414L24.8351 1.70916C24.9492 1.35744 25.1717 1.05087 25.4707 0.833444C25.7698 0.616016 26.1301 0.498901 26.4998 0.498901C26.8696 0.498901 27.2298 0.616016 27.5289 0.833444C27.8279 1.05087 28.0505 1.35744 28.1645 1.70916L33.4582 18.006H50.9998C51.3736 18.0059 51.7376 18.1254 52.0386 18.347C52.3395 18.5687 52.5616 18.8809 52.6722 19.238C52.7829 19.595 52.7763 19.9781 52.6535 20.3311C52.5307 20.6841 52.298 20.9885 51.9896 21.1998L37.7654 30.9451L43.2484 47.1906C43.3372 47.4536 43.3622 47.734 43.3213 48.0085C43.2804 48.2831 43.1747 48.544 43.013 48.7697C42.8514 48.9954 42.6383 49.1794 42.3915 49.3064C42.1447 49.4335 41.8712 49.5001 41.5936 49.5006Z" fill="#FFC23D"/>
</svg>
